<?xml version="1.0" encoding="UTF-8" standalone="no"?>
<!-- Created with Inkscape (http://www.inkscape.org/) -->

<svg
   xmlns:dc="http://purl.org/dc/elements/1.1/"
   xmlns:cc="http://creativecommons.org/ns#"
   xmlns:rdf="http://www.w3.org/1999/02/22-rdf-syntax-ns#"
   xmlns:svg="http://www.w3.org/2000/svg"
   xmlns="http://www.w3.org/2000/svg"
   xmlns:sodipodi="http://sodipodi.sourceforge.net/DTD/sodipodi-0.dtd"
   xmlns:inkscape="http://www.inkscape.org/namespaces/inkscape"
   width="297mm"
   height="210mm"
   viewBox="0 0 297 210"
   id="svg8068"
   version="1.1"
   inkscape:version="0.91 r13725"
   sodipodi:docname="Overview.svg"
   inkscape:export-filename="D:\Work\Unity5\AnUnconventionalWeapon\Artz\WIP\Wip_01.png"
   inkscape:export-xdpi="41.049999"
   inkscape:export-ydpi="41.049999">
  <defs
     id="defs8070" />
  <sodipodi:namedview
     inkscape:document-units="mm"
     pagecolor="#ffffff"
     bordercolor="#666666"
     borderopacity="1.0"
     inkscape:pageopacity="0.0"
     inkscape:pageshadow="2"
     inkscape:zoom="0.43415836"
     inkscape:cx="418.85447"
     inkscape:cy="415.89111"
     inkscape:current-layer="layer5"
     id="namedview8072"
     showgrid="false"
     inkscape:window-width="1366"
     inkscape:window-height="706"
     inkscape:window-x="-8"
     inkscape:window-y="-8"
     inkscape:window-maximized="1" />
  <metadata
     id="metadata8074">
    <rdf:RDF>
      <cc:Work
         rdf:about="">
        <dc:format>image/svg+xml</dc:format>
        <dc:type
           rdf:resource="http://purl.org/dc/dcmitype/StillImage" />
        <dc:title />
      </cc:Work>
    </rdf:RDF>
  </metadata>
  <g
     inkscape:groupmode="layer"
     id="layer4"
     inkscape:label="bg_bottom">
    <rect
       style="fill:#6f917c;fill-opacity:1;stroke:none;stroke-width:10;stroke-linecap:round;stroke-linejoin:round;stroke-miterlimit:4;stroke-dasharray:none;stroke-dashoffset:0;stroke-opacity:1"
       id="rect12624"
       width="299.02045"
       height="211.91449"
       x="1.4563965e-006"
       y="0.68569529" />
  </g>
  <g
     inkscape:groupmode="layer"
     id="layer3"
     inkscape:label="path">
    <path
       style="fill:none;fill-rule:evenodd;stroke:#000000;stroke-width:0.28222221px;stroke-linecap:butt;stroke-linejoin:miter;stroke-opacity:1"
       d="M 219.06497,79.991113 C 194.36328,104.6928 192.41315,27.98756 186.56275,19.536983 180.71235,11.086405 131.95902,33.837959 107.90738,42.288539 20.765579,79.541534 -2.741149,127.28213 -34.452355,204.79965 l 45.19398,6.46909 c 0,0 63.054311,-83.85574 87.105961,-92.30631 24.051644,-8.45058 72.804974,-31.202138 78.655374,-22.75156 5.8504,8.45058 7.80053,85.15582 32.50222,60.45413 24.70169,-24.70169 91.00622,35.1024 91.00622,35.1024 l -0.0159,-83.17433 c 0,0 -56.22884,-53.303643 -80.93053,-28.601957 z"
       id="path12600"
       inkscape:connector-curvature="0"
       sodipodi:nodetypes="ssccsscsccs" />
    <path
       style="fill:#c8b7b7;fill-opacity:1;stroke:none;stroke-width:10;stroke-linecap:round;stroke-linejoin:round;stroke-miterlimit:4;stroke-dasharray:none;stroke-dashoffset:0;stroke-opacity:1"
       d="m -46.038857,735.26632 c -39.271385,-5.70442 -71.834243,-10.74101 -72.361913,-11.19239 -1.47384,-1.26079 32.365578,-81.39604 57.732451,-136.71645 C -24.309484,508.06565 12.296958,445.1262 53.870422,390.42473 75.67276,361.73768 137.78278,298.92374 167.38421,275.62442 215.89227,237.44365 282.27231,197.37966 344.54116,168.70047 361.55,160.8667 399.8238,145.00247 429.59404,133.44664 571.33719,78.426588 604.58761,67.365768 634.85617,65.165788 c 27.64987,-2.009648 26.51095,-4.217214 42.43924,82.260052 18.2901,99.29983 31.46041,137.03166 52.25674,149.71125 15.15682,9.24112 25.93436,5.72717 54.71727,-17.84026 36.79826,-30.13039 99.25908,-19.51306 178.18402,30.28841 24.16166,15.24598 66.43656,46.84726 85.00276,63.54121 l 13.244,11.90847 0,144.78781 0,144.78782 -31.6705,-25.39094 C 948.96253,585.02796 870.51691,542.59821 816.37259,534.19743 c -31.72504,-4.92231 -55.12608,1.00783 -76.7727,19.45523 -24.9751,21.28396 -36.26377,22.2844 -51.83565,4.59383 C 671.16276,539.3862 660.12599,502.96392 643.88993,413.4578 632.97744,353.29938 629.2323,339.59399 622.75925,336.12972 607.41662,327.9186 559.68082,338.3704 487.17672,365.81567 387.83163,403.42116 335.6448,424.32595 325.60247,430.53841 l -10.70763,6.62406 -8.27173,-8.47101 -8.27173,-8.47104 18.97936,-18.42111 c 10.43866,-10.1316 21.8029,-20.87793 25.25388,-23.88076 l 6.27448,-5.45966 9.15042,6.05546 9.15039,6.05544 4.72904,-6.64133 c 6.22275,-8.73905 6.0515,-9.61493 -3.09795,-15.84461 -6.54155,-4.45402 -8.47341,-7.92147 -12.00977,-21.55612 -4.60449,-17.75279 -5.51179,-18.544 -24.45547,-21.32575 -8.064,-1.18415 -14.15525,-4.25614 -23.44647,-11.82471 l -12.5522,-10.22494 -5.97065,7.47997 -5.97066,7.47999 9.74506,8.53939 c 5.3598,4.69668 9.26911,8.87566 8.68736,9.28662 -0.58172,0.41095 -12.46763,11.22081 -26.4131,24.0219 l -25.35538,23.27473 -26.07783,-23.92392 -26.07784,-23.92392 -16.48348,0 -16.48348,0 31.6514,31.71209 31.6514,31.7121 -25.2195,43.72121 c -13.87075,24.04666 -24.46773,43.99111 -23.54885,44.32099 0.91888,0.32988 22.88637,-9.13275 48.81663,-21.02806 l 47.14596,-21.62785 8.25719,7.88024 8.25722,7.88026 -36.70737,36.18087 c -53.13114,52.36914 -112.35234,120.72247 -187.501308,216.41468 -27.007295,34.39019 -32.020047,39.68851 -37.284276,39.40822 -3.34506,-0.17809 -38.2130585,-4.99108 -77.484443,-10.69552 z"
       id="path12619"
       inkscape:connector-curvature="0"
       transform="scale(0.28222222,0.28222222)" />
    <path
       style="fill:#ac9393;fill-opacity:1;stroke:none;stroke-width:10;stroke-linecap:round;stroke-linejoin:round;stroke-miterlimit:4;stroke-dasharray:none;stroke-dashoffset:0;stroke-opacity:1"
       d="m 21.716758,747.21783 c -1.470203,-3.86471 -13.6201495,-6.26884 -13.6631707,-2.70353 -0.024162,2.00229 -0.5682996,2.12782 -1.7274803,0.39852 -2.6714952,-3.98541 -14.3537234,-6.17797 -14.3956689,-2.70182 -0.024162,2.00229 -0.5682995,2.12782 -1.7274802,0.39852 -2.6714949,-3.98542 -14.3537239,-6.17798 -14.3956689,-2.70183 -0.02845,2.35691 -0.39387,2.35806 -1.886851,0.007 -1.01837,-1.60439 -6.183868,-3.34806 -11.478887,-3.87483 -5.295018,-0.52677 -11.701353,-1.61605 -14.236299,-2.42059 -3.011378,-0.95578 -4.621217,-0.41105 -4.644261,1.5715 -0.02568,2.20982 -0.501375,2.3016 -1.750553,0.33783 -2.722382,-4.27973 -14.330285,-6.48913 -14.372597,-2.73562 -0.02801,2.48407 -0.420079,2.52244 -1.902632,0.18634 -1.02705,-1.61842 -8.525719,-3.96003 -16.663706,-5.20359 -25.825153,-3.94625 -25.807173,-3.93808 -24.056483,-10.91341 0.8546,-3.405 1.73301,-7.24671 1.95202,-8.53716 0.21901,-1.29043 0.95461,-2.86449 1.63466,-3.4979 2.11522,-1.97013 37.535873,-86.18044 37.535873,-89.23909 0,-1.59127 0.778016,-2.89319 1.728922,-2.89319 1.857979,0 9.877055,-19.479 9.096211,-22.09544 -0.258399,-0.86583 0.573968,-2.21935 1.849708,-3.00779 2.99083,-1.84843 23.658692,-46.28788 21.54924,-46.33455 -0.876643,-0.0184 -0.43149,-0.79676 0.989229,-1.72748 4.007939,-2.62561 24.100045,-41.03717 22.370287,-42.76693 -0.845051,-0.8461 -0.353839,-1.5375 1.091583,-1.5375 4.160544,0 10.2490994,-13.19139 6.7429179,-14.60912 -1.7444279,-0.70536 -1.3703659,-1.22068 0.9669997,-1.33219 2.0965576,-0.1 6.6668346,-5.10516 10.156172,-11.12255 3.4893351,-6.01739 13.3814494,-21.496 21.9824724,-34.39694 9.925528,-14.88759 14.629503,-23.86627 12.876898,-24.57871 -1.615132,-0.65655 -1.201668,-1.19797 0.996086,-1.30431 5.16391,-0.24991 16.729303,-15.55067 12.918298,-17.09063 -1.846216,-0.74602 -1.575361,-1.21829 0.766137,-1.33583 1.9921,-0.1 11.230616,-9.04497 20.530034,-19.8777 9.299418,-10.83273 33.063482,-35.3328 52.809032,-54.4446 19.74553,-19.11183 36.60549,-36.42001 37.46656,-38.46266 1.09658,-2.60127 1.61411,-2.76823 1.72748,-0.5573 0.10111,1.97142 3.89581,0.0969 10.10677,-4.99248 5.46969,-4.482 23.34911,-17.14704 39.73205,-28.14454 16.38293,-10.9975 30.49168,-21.70698 31.35275,-23.79885 0.91036,-2.21155 1.63337,-2.56447 1.72748,-0.84322 0.24942,4.56049 9.33353,-1.06693 9.55697,-5.92035 0.10803,-2.34582 0.64898,-2.79447 1.33219,-1.10482 1.66605,4.12027 14.55469,-2.92622 14.79096,-8.08652 0.11171,-2.438 0.63316,-2.85175 1.35059,-1.07147 0.84757,2.1031 4.27858,1.15356 12.48402,-3.45496 6.22337,-3.49532 11.31628,-7.19366 11.31757,-8.21854 0.001,-1.02488 1.03884,-1.22283 2.30566,-0.43989 1.26682,0.78293 2.31918,-0.45151 2.33857,-2.7432 0.0299,-3.53283 0.37496,-3.64111 2.26804,-0.71176 1.85202,2.8658 2.24481,2.66942 2.30331,-1.15166 0.0585,-3.82107 0.45129,-4.01746 2.30331,-1.15165 1.85202,2.8658 2.2448,2.66942 2.3033,-1.15165 0.0585,-3.82108 0.45129,-4.01746 2.30331,-1.15166 1.85202,2.86581 2.24481,2.66942 2.30331,-1.15165 0.0585,-3.82107 0.45129,-4.01746 2.30331,-1.15165 1.85202,2.8658 2.2448,2.66942 2.3033,-1.15166 0.0585,-3.82107 0.45129,-4.01746 2.30331,-1.15165 1.85202,2.8658 2.2448,2.66942 2.30331,-1.15166 0.0585,-3.82107 0.45128,-4.01745 2.3033,-1.15165 1.48852,2.30331 2.24453,2.49525 2.26805,0.57583 0.0184,-1.58353 0.81263,-2.6364 1.76274,-2.33973 2.59256,0.80952 28.21551,-10.03299 28.21551,-11.93957 0,-0.90855 1.40859,-1.65191 3.13022,-1.65191 4.47567,0 53.02162,-19.62309 54.70997,-22.11469 0.77506,-1.14378 1.84667,-1.73195 2.38139,-1.30705 1.12461,0.89365 48.61037,-16.70593 50.33716,-18.65639 0.63341,-0.71545 2.70639,-1.58202 4.60661,-1.92571 5.19117,-0.93891 53.95287,-19.521893 55.27937,-21.066852 0.63341,-0.737728 2.18814,-1.381238 3.45496,-1.430017 4.32149,-0.166414 21.88142,-6.394692 21.88305,-7.761643 8.8e-4,-0.749591 2.72751,-1.520799 6.05915,-1.713794 3.33162,-0.192994 6.69949,-1.229483 7.48412,-2.303307 0.78462,-1.073824 3.57213,-2.166255 6.19446,-2.427624 2.62234,-0.261368 7.80478,-1.703591 11.51654,-3.204939 3.71176,-1.501348 8.3034,-2.922092 10.20363,-3.15721 1.90022,-0.235117 8.6374,-1.585991 14.97149,-3.001943 6.3341,-1.415952 17.45193,-3.221478 24.70629,-4.01228 11.94808,-1.302468 13.72365,-0.903916 18.86122,4.23365 3.66634,3.666327 6.69862,10.644353 8.57669,19.737067 1.59785,7.736078 3.47518,14.071462 4.17184,14.078622 0.69664,0.007 1.42358,4.17586 1.61543,9.26377 0.19186,5.0879 1.10247,11.04184 2.02366,13.23098 1.73662,4.12693 2.01779,5.69609 4.37948,24.44108 0.77942,6.18617 1.99359,12.18036 2.69819,13.32042 0.70458,1.14006 1.74535,5.816 2.31277,10.39099 0.56745,4.57498 2.07231,12.57338 3.34413,17.77422 1.27184,5.20083 2.847,12.04728 3.5004,15.21433 0.65341,3.16705 2.36262,9.90422 3.79827,14.9715 1.43568,5.06727 2.722,9.73147 2.85852,10.36488 1.98654,9.21684 4.13243,13.82628 6.45014,13.85511 2.07078,0.0257 2.12284,0.49155 0.19301,1.72748 -4.46387,2.85897 7.67812,29.23566 18.95244,41.17133 13.19961,13.97391 23.19272,15.57809 40.01314,6.42328 6.39336,-3.47966 11.62422,-7.19841 11.62422,-8.2639 0,-1.06548 0.93233,-1.93724 2.07185,-1.93724 1.13951,0 7.43475,-3.60896 13.98939,-8.01992 6.55465,-4.41095 16.24633,-9.13566 21.53705,-10.49936 5.29074,-1.36369 12.5234,-3.38559 16.07259,-4.49311 3.54919,-1.10751 8.73163,-1.42463 11.51653,-0.70471 2.78491,0.71993 8.69116,1.42747 13.12503,1.57232 4.43386,0.14485 8.57982,0.78314 9.21323,1.41842 1.18406,1.18755 28.3734,8.94053 34.5496,9.85175 1.90023,0.28035 4.8246,1.80534 6.49862,3.38886 2.74612,2.59767 7.85594,3.88575 12.50366,3.15189 0.95012,-0.15001 1.72749,0.63799 1.72749,1.75111 0,2.09268 12.41358,8.00173 15.191,7.23115 0.86281,-0.23938 2.20288,0.57119 2.97794,1.80127 2.77901,4.41058 25.59205,16.49613 25.75579,13.64449 0.0891,-1.55065 0.86639,-1.0671 1.72748,1.07457 2.35472,5.85666 41.32596,32.17326 42.68576,28.82494 0.6536,-1.60946 1.2037,-1.16347 1.3092,1.06136 0.1725,3.6404 18.6083,20.26033 18.6083,16.77545 0,-0.91071 2.2169,1.16255 4.9265,4.60723 3.7841,4.81069 5.3782,5.55038 6.8746,3.18974 1.5432,-2.43441 1.9555,-2.32496 1.9834,0.52658 0.047,4.76927 13.8013,18.06104 14.0011,13.53004 0.08,-1.82053 1.0919,-0.955 2.248,1.92345 1.1561,2.87842 3.4225,5.74002 5.0365,6.35913 2.3428,0.8987 2.8114,30.19258 2.3242,145.31076 -0.5384,127.21328 -1.0129,143.85096 -4.0308,141.3463 -1.8813,-1.56134 -3.4206,-2.05386 -3.4206,-1.09451 0,0.95938 -2.1482,-0.98669 -4.7737,-4.32457 -2.6256,-3.33789 -6.004,-6.06889 -7.5076,-6.06889 -1.5035,0 -4.0825,-2.15972 -5.731,-4.79936 -1.7002,-2.72255 -4.4317,-4.24889 -6.3123,-3.52726 -1.8756,0.71976 -3.315,-0.078 -3.315,-1.83719 0,-4.07634 -15.4817,-15.84088 -18.44,-14.01253 -1.2594,0.77833 -2.2898,-0.0251 -2.2898,-1.7853 0,-4.10115 -19.96988,-18.5427 -23.0277,-16.65286 -1.26977,0.78476 -2.30868,-0.18906 -2.30868,-2.16405 0,-1.97499 -1.55473,-3.5909 -3.45496,-3.5909 -1.90023,0 -3.45496,-0.95196 -3.45496,-2.11545 0,-2.47099 -16.45632,-13.09349 -19.00228,-12.26592 -0.95012,0.30883 -1.72748,-0.58584 -1.72748,-1.98821 0,-1.40235 -1.55473,-1.95314 -3.45496,-1.22393 -1.92591,0.73904 -3.45496,0.0622 -3.45496,-1.52917 0,-1.57023 -4.92332,-5.42452 -10.94071,-8.56512 -6.01739,-3.14058 -11.45895,-6.33235 -12.09236,-7.09283 -2.63759,-3.16665 -11.77677,-6.78994 -13.86746,-5.49783 -1.24063,0.76677 -2.25569,0.23528 -2.25569,-1.18107 0,-1.41635 -1.03649,-1.93459 -2.30331,-1.15165 -1.26682,0.78294 -2.30331,0.39571 -2.30331,-0.86052 0,-2.29057 -8.8522,-6.21003 -12.09236,-5.3541 -0.95011,0.25099 -1.72748,-0.55351 -1.72748,-1.78781 0,-2.96064 -13.36934,-9.8093 -16.85512,-8.63429 -1.49765,0.50484 -3.75948,-0.35088 -5.0263,-1.90163 -2.65797,-3.2537 -28.34249,-11.97308 -41.63296,-14.13358 -12.03144,-1.95583 -44.15276,-1.85745 -52.80262,0.16169 -3.80046,0.88715 -8.11115,3.19232 -9.5793,5.12261 -1.46817,1.93028 -3.28202,3.44058 -4.03078,3.35624 -5.83218,-0.65705 -8.27134,0.35664 -8.27134,3.43752 0,1.97499 -1.01016,2.96657 -2.24483,2.20351 -1.81044,-1.11893 -15.77687,8.16771 -28.79143,19.14414 -1.23468,1.04135 -6.41713,1.13334 -11.51653,0.20453 -10.86279,-1.9787 -26.84392,-17.84455 -31.1663,-30.94147 -1.45601,-4.41176 -3.66456,-8.02138 -4.90791,-8.02138 -1.24333,0 -1.69362,-0.91743 -1.0006,-2.03873 1.2761,-2.06478 -2.91235,-16.57241 -5.39622,-18.69104 -0.7426,-0.63341 -1.37042,-2.18814 -1.39513,-3.45496 -0.13083,-6.70518 -6.81795,-33.39795 -8.3669,-33.39795 -0.99466,0 -1.2068,-1.56793 -0.47142,-3.48428 0.73538,-1.91638 0.19348,-4.86208 -1.20396,-6.54602 -1.39756,-1.68397 -1.90371,-3.69904 -1.1248,-4.47795 0.77893,-0.77894 0.6502,-3.27478 -0.28605,-5.54634 -0.93624,-2.27157 -2.10679,-8.27609 -2.60121,-13.34336 -0.49441,-5.06728 -1.54446,-10.76796 -2.33341,-12.66819 -0.78898,-1.90023 -1.7217,-5.52794 -2.07273,-8.06157 -1.31793,-9.5125 -3.33539,-20.9566 -4.87257,-27.63969 -1.78309,-7.75229 -2.37669,-10.91737 -3.82891,-20.41584 -0.55466,-3.62781 -2.43367,-7.49877 -4.17559,-8.60214 -2.14189,-1.35672 -2.26818,-2.01754 -0.39016,-2.0414 2.07162,-0.0263 1.9175,-2.47122 -0.60665,-9.62547 -4.4126,-12.50662 -6.59294,-14.90321 -15.10762,-16.60616 -8.46898,-1.6938 -38.8871,2.95261 -38.8871,5.94007 0,1.15592 -0.9701,1.50213 -2.15578,0.76935 -1.18567,-0.7328 -6.62723,-0.24648 -12.09236,1.08071 -5.46513,1.32717 -11.92871,2.87688 -14.36351,3.44375 -6.68305,1.55597 -34.40561,10.78249 -37.0326,12.32504 -1.26682,0.74387 -4.19547,1.64705 -6.50815,2.00708 -2.31266,0.36 -6.45861,1.89405 -9.21323,3.40896 -2.75459,1.51493 -6.90055,3.06966 -9.21323,3.45496 -2.31266,0.38532 -6.45861,1.95399 -9.21323,3.48596 -5.36493,2.98371 -6.55949,3.36583 -11.9183,3.81239 -1.90023,0.15824 -5.52793,2.36089 -8.06157,4.89453 -2.53364,2.53364 -4.60662,3.53366 -4.60662,2.22228 0,-1.50637 -1.90836,-1.33578 -5.18244,0.46319 -2.85034,1.56616 -7.21043,3.18352 -9.68907,3.59417 -2.47865,0.41064 -5.06987,1.4978 -5.75826,2.41592 -0.68842,0.91812 -2.80638,1.97764 -4.7066,2.35446 -1.90023,0.37682 -13.56072,4.5052 -25.91221,9.17414 -14.73386,5.56952 -22.46938,9.69066 -22.4925,11.98305 -0.0242,2.39194 -0.57272,2.64933 -1.73912,0.81606 -1.2623,-1.98404 -3.78986,-1.73858 -9.75379,0.94726 -4.42746,1.9939 -8.56819,3.76096 -9.20159,3.92682 -0.63341,0.16583 -5.98243,2.4907 -11.8867,5.16634 -5.9043,2.67563 -12.9006,5.5521 -15.54733,6.39213 -2.64675,0.84004 -4.82814,3.27137 -4.84754,5.40294 -0.0299,3.29361 -0.35807,3.36511 -2.18503,0.47605 -1.75553,-2.77609 -2.56708,-2.3537 -4.42534,2.30331 -1.25157,3.13655 -2.34129,4.34604 -2.42158,2.68775 -0.0804,-1.65829 -1.03184,-2.4676 -2.11451,-1.79847 -1.08267,0.66913 -4.3728,-1.34267 -7.31141,-4.47067 -2.9386,-3.12801 -4.51711,-5.68728 -3.50775,-5.68728 1.00935,0 0.45179,-1.66691 -1.23904,-3.7042 -2.61308,-3.14858 -2.41018,-4.18977 1.35259,-6.94118 2.43476,-1.78034 13.93508,-12.57776 25.55627,-23.99429 15.56635,-15.29218 21.48447,-19.83219 22.47782,-17.24354 0.74159,1.93256 2.49141,3.51376 3.88846,3.51376 1.39707,0 4.09487,1.55473 5.9951,3.45496 4.83056,4.83056 6.1783,4.40468 10.7953,-3.41129 3.16718,-5.36162 3.50305,-7.8994 1.53269,-11.58103 -1.38781,-2.59315 -3.4138,-4.16445 -4.50223,-3.49177 -2.48962,1.53868 -14.67064,-23.83194 -15.92848,-33.17579 -0.64646,-4.8024 -7.56617,-8.90993 -17.52613,-10.40353 -6.89991,-1.0347 -15.72335,-5.12039 -25.47288,-11.79517 -16.09362,-11.01812 -17.17488,-11.50304 -17.17488,-7.70219 0,1.38046 -2.3321,4.4007 -5.18244,6.71165 l -5.18244,4.20172 8.6374,8.64373 c 4.75057,4.75405 8.6374,9.44232 8.6374,10.41837 0,0.97607 -3.25499,4.69015 -7.23331,8.25353 -3.97831,3.56338 -11.49942,10.63856 -16.71355,15.72263 -5.21416,5.08406 -13.10271,12.00672 -17.53015,15.38369 -10.68193,8.14749 -7.85692,9.91972 -50.65527,-31.7778 -7.72239,-7.52378 -8.78705,-7.85352 -25.30439,-7.8377 l -17.24278,0.0161 30.4868,30.5497 c 20.92027,20.9638 30.48683,32.16663 30.48683,35.70168 0,2.83334 -0.87013,5.15155 -1.93359,5.15155 -2.12178,0 -8.32587,11.62675 -7.68159,14.39567 0.22111,0.95011 -0.46817,1.72748 -1.53163,1.72748 -2.12179,0 -8.32588,11.62675 -7.6816,14.39567 0.22112,0.95011 -0.46817,1.72748 -1.53163,1.72748 -2.12178,0 -8.32588,11.62675 -7.6816,14.39567 0.22112,0.95011 -0.53315,1.72748 -1.67602,1.72748 -1.1429,0 -3.21719,2.85034 -4.60957,6.33409 -1.39235,3.48375 -5.15169,10.73917 -8.35409,16.12315 -3.20243,5.38398 -5.53319,9.78853 -5.17952,9.7879 1.42013,-0.002 26.35124,-9.81625 31.73522,-12.492 3.16841,-1.57466 11.97966,-5.69281 19.58058,-9.15144 7.60091,-3.45862 19.00228,-8.69889 25.33637,-11.64503 18.4959,-8.60285 19.22204,-8.65039 27.7839,-1.81888 4.35447,3.47445 7.91725,6.95797 7.91729,7.74116 5e-5,0.78322 -13.9488,15.20462 -30.99744,32.0476 -17.04864,16.84295 -30.55835,31.33414 -30.02161,32.20262 0.53677,0.86849 -1.70486,3.01377 -4.98138,4.76732 -7.36036,3.93914 -24.17224,22.72606 -22.60549,25.26113 0.63097,1.02092 -0.89529,2.5045 -3.39168,3.29681 -5.34999,1.69802 -16.77637,14.61497 -15.19372,17.17574 0.60215,0.97432 -1.40907,2.91235 -4.46941,4.3067 -3.06031,1.39438 -7.368,5.28816 -9.57261,8.65283 -3.75914,5.73715 -9.77003,12.64749 -22.93198,26.36333 -3.05225,3.18073 -5.54956,6.65926 -5.54956,7.73009 0,1.07083 -2.59123,3.9852 -5.75827,6.47641 -3.16705,2.49121 -5.75827,5.36832 -5.75827,6.39359 0,1.02527 -4.65314,6.90985 -10.34031,13.07684 -5.68718,6.16699 -10.35138,12.25899 -10.36488,13.53778 -0.0138,1.2788 -2.09755,3.61969 -4.63119,5.20197 -2.53363,1.58228 -4.60661,4.1735 -4.60661,5.75827 0,1.58477 -2.072978,4.17599 -4.606615,5.75827 -2.533638,1.58228 -4.606614,4.1735 -4.606614,5.75827 0,1.58476 -2.072977,4.17599 -4.606614,5.75826 -2.533638,1.58228 -4.606614,4.17351 -4.606614,5.75827 0,1.58477 -2.072977,4.17599 -4.606614,5.75827 -2.533638,1.58228 -4.606615,4.31193 -4.606615,6.0659 0,1.75394 -1.662271,3.82687 -3.693937,4.6065 -2.031667,0.77962 -3.139875,2.86135 -2.462689,4.62607 0.727405,1.8956 -0.583863,3.68327 -3.204359,4.36852 -2.439584,0.63797 -5.031235,2.71213 -5.759223,4.60924 -0.727988,1.8971 -5.698499,8.21443 -11.045583,14.03852 -6.819053,7.42736 -11.528132,10.58923 -15.770872,10.58923 -3.326894,0 -6.480769,1.29561 -7.008611,2.87913 -0.632711,1.89813 -1.28671,2.01956 -1.919422,0.35634 z"
       id="path12621"
       inkscape:connector-curvature="0"
       transform="scale(0.28222222,0.28222222)" />
  </g>
  <g
     inkscape:groupmode="layer"
     id="layer5"
     inkscape:label="Trees">
    <path
       sodipodi:type="spiral"
       style="fill:none;fill-rule:evenodd;stroke:#000000;stroke-width:0.28222221px;stroke-linecap:butt;stroke-linejoin:miter;stroke-opacity:1"
       id="path12721"
       sodipodi:cx="73.08448"
       sodipodi:cy="113.47332"
       sodipodi:expansion="1"
       sodipodi:revolution="8.9846401"
       sodipodi:radius="47.938297"
       sodipodi:argument="-56.200203"
       sodipodi:t0="0"
       d="m 73.08448,113.47332 c 0.754318,0.27404 0.0028,1.15201 -0.455466,1.25373 -1.24176,0.27565 -2.095677,-1.08098 -2.051986,-2.16466 0.07815,-1.93846 2.089315,-3.10056 3.87385,-2.85025 2.618876,0.36735 4.126124,3.10805 3.648507,5.58304 -0.636589,3.29878 -4.130032,5.15995 -7.292234,4.44677 -3.979308,-0.89747 -6.197939,-5.15346 -5.245027,-9.00142 1.154104,-4.6604 6.177691,-7.23832 10.710617,-6.04329 5.341896,1.4083 8.280197,7.20241 6.841548,12.41981 -1.660978,6.02369 -8.227457,9.32307 -14.129001,7.6398 -6.70571,-1.91263 -10.366651,-9.25273 -8.438068,-15.83819 2.163577,-7.38789 10.278182,-11.410734 17.547384,-9.236327 8.070193,2.414007 12.455204,11.303757 10.034589,19.256577 -2.664043,8.75259 -12.329434,13.49996 -20.965768,10.83285 -9.43507,-2.91378 -14.544955,-13.35519 -11.63111,-22.67496 3.16329,-10.11761 14.381007,-15.59013 24.384152,-12.429371 10.800199,3.412609 16.635454,15.406881 13.227631,26.093341 -3.661777,11.48283 -16.43279,17.6809 -27.802537,14.02589 -12.165495,-3.91082 -18.726451,-17.45873 -14.82415,-29.51172 4.159756,-12.848195 18.484717,-19.772092 31.22092,-15.622415 13.530911,4.408606 20.817799,19.510725 16.420671,32.930115 -4.657382,14.21365 -20.536751,21.86357 -34.639304,17.21893 -14.896413,-4.9061 -22.909396,-21.5628 -18.017191,-36.3485 5.15475,-15.579187 22.588861,-23.955268 38.057687,-18.81545 16.261979,5.403359 25.001186,23.61494 19.613716,39.76688 -5.65193,16.94478 -24.641037,26.04714 -41.476075,20.41197 C 44.070239,138.91602 34.604715,119.14934 40.487602,101.63121 46.636556,83.320789 67.180853,73.492077 85.382057,79.622716 104.37531,86.020138 114.56723,107.34209 108.18881,126.22636 101.54295,145.90245 79.443305,156.45759 59.875972,149.83138 39.517033,142.93709 28.598661,120.05973 35.472698,99.809346 42.61538,78.767553 66.270489,67.485935 87.203921,74.607812 108.92857,81.998873 120.57345,106.43175 113.20371,128.04823 105.56429,150.45574 80.353614,162.46388 58.054108,154.84628 34.963723,146.95851 22.592306,120.97002 30.457794,97.987482 38.593898,74.214223 65.360225,61.479521 89.025784,69.592907 111.81821,77.406951 125.08252,102.06823 119.50921,125.42427" />
    <ellipse
       style="display:inline;fill:#217821;fill-opacity:1;stroke:none;stroke-width:10;stroke-linecap:round;stroke-linejoin:round;stroke-miterlimit:4;stroke-dasharray:none;stroke-dashoffset:0;stroke-opacity:1"
       id="path12659"
       cx="157.20058"
       cy="119.90844"
       rx="8.963191"
       ry="8.50354" />
    <ellipse
       style="display:inline;fill:#2ca02c;fill-opacity:1;stroke:none;stroke-width:10;stroke-linecap:round;stroke-linejoin:round;stroke-miterlimit:4;stroke-dasharray:none;stroke-dashoffset:0;stroke-opacity:1"
       id="path12661"
       cx="157.30537"
       cy="120.03347"
       rx="4.3666825"
       ry="4.1368575" />
    <ellipse
       style="display:inline;fill:#217821;fill-opacity:1;stroke:none;stroke-width:10;stroke-linecap:round;stroke-linejoin:round;stroke-miterlimit:4;stroke-dasharray:none;stroke-dashoffset:0;stroke-opacity:1"
       id="path12659-8"
       cx="172.36905"
       cy="150.70505"
       rx="8.963191"
       ry="8.50354" />
    <ellipse
       style="display:inline;fill:#2ca02c;fill-opacity:1;stroke:none;stroke-width:10;stroke-linecap:round;stroke-linejoin:round;stroke-miterlimit:4;stroke-dasharray:none;stroke-dashoffset:0;stroke-opacity:1"
       id="path12661-6"
       cx="172.47385"
       cy="150.83008"
       rx="4.3666825"
       ry="4.1368575" />
    <ellipse
       style="display:inline;fill:#217821;fill-opacity:1;stroke:none;stroke-width:10;stroke-linecap:round;stroke-linejoin:round;stroke-miterlimit:4;stroke-dasharray:none;stroke-dashoffset:0;stroke-opacity:1"
       id="path12659-1"
       cx="225.2289"
       cy="164.49457"
       rx="8.963191"
       ry="8.50354" />
    <ellipse
       style="display:inline;fill:#2ca02c;fill-opacity:1;stroke:none;stroke-width:10;stroke-linecap:round;stroke-linejoin:round;stroke-miterlimit:4;stroke-dasharray:none;stroke-dashoffset:0;stroke-opacity:1"
       id="path12661-5"
       cx="225.33369"
       cy="164.6196"
       rx="4.3666825"
       ry="4.1368575" />
    <ellipse
       style="display:inline;fill:#217821;fill-opacity:1;stroke:none;stroke-width:10;stroke-linecap:round;stroke-linejoin:round;stroke-miterlimit:4;stroke-dasharray:none;stroke-dashoffset:0;stroke-opacity:1"
       id="path12659-88"
       cx="270.73434"
       cy="186.5578"
       rx="8.963191"
       ry="8.50354" />
    <ellipse
       style="display:inline;fill:#2ca02c;fill-opacity:1;stroke:none;stroke-width:10;stroke-linecap:round;stroke-linejoin:round;stroke-miterlimit:4;stroke-dasharray:none;stroke-dashoffset:0;stroke-opacity:1"
       id="path12661-64"
       cx="270.83914"
       cy="186.68283"
       rx="4.3666825"
       ry="4.1368575" />
    <ellipse
       style="display:inline;fill:#217821;fill-opacity:1;stroke:none;stroke-width:10;stroke-linecap:round;stroke-linejoin:round;stroke-miterlimit:4;stroke-dasharray:none;stroke-dashoffset:0;stroke-opacity:1"
       id="path12659-5"
       cx="288.20108"
       cy="79.918823"
       rx="8.963191"
       ry="8.50354" />
    <ellipse
       style="display:inline;fill:#2ca02c;fill-opacity:1;stroke:none;stroke-width:10;stroke-linecap:round;stroke-linejoin:round;stroke-miterlimit:4;stroke-dasharray:none;stroke-dashoffset:0;stroke-opacity:1"
       id="path12661-58"
       cx="288.30588"
       cy="80.043854"
       rx="4.3666825"
       ry="4.1368575" />
    <ellipse
       style="display:inline;fill:#217821;fill-opacity:1;stroke:none;stroke-width:10;stroke-linecap:round;stroke-linejoin:round;stroke-miterlimit:4;stroke-dasharray:none;stroke-dashoffset:0;stroke-opacity:1"
       id="path12659-7"
       cx="255.56584"
       cy="63.371391"
       rx="8.963191"
       ry="8.50354" />
    <ellipse
       style="display:inline;fill:#2ca02c;fill-opacity:1;stroke:none;stroke-width:10;stroke-linecap:round;stroke-linejoin:round;stroke-miterlimit:4;stroke-dasharray:none;stroke-dashoffset:0;stroke-opacity:1"
       id="path12661-1"
       cx="255.67064"
       cy="63.496422"
       rx="4.3666825"
       ry="4.1368575" />
    <ellipse
       style="display:inline;fill:#217821;fill-opacity:1;stroke:none;stroke-width:10;stroke-linecap:round;stroke-linejoin:round;stroke-miterlimit:4;stroke-dasharray:none;stroke-dashoffset:0;stroke-opacity:1"
       id="path12659-14"
       cx="209.14113"
       cy="50.501163"
       rx="8.963191"
       ry="8.50354" />
    <ellipse
       style="display:inline;fill:#2ca02c;fill-opacity:1;stroke:none;stroke-width:10;stroke-linecap:round;stroke-linejoin:round;stroke-miterlimit:4;stroke-dasharray:none;stroke-dashoffset:0;stroke-opacity:1"
       id="path12661-2"
       cx="209.24593"
       cy="50.626194"
       rx="4.3666825"
       ry="4.1368575" />
    <ellipse
       style="display:inline;fill:#217821;fill-opacity:1;stroke:none;stroke-width:10;stroke-linecap:round;stroke-linejoin:round;stroke-miterlimit:4;stroke-dasharray:none;stroke-dashoffset:0;stroke-opacity:1"
       id="path12659-81"
       cx="166.85326"
       cy="10.051892"
       rx="8.963191"
       ry="8.50354" />
    <ellipse
       style="display:inline;fill:#2ca02c;fill-opacity:1;stroke:none;stroke-width:10;stroke-linecap:round;stroke-linejoin:round;stroke-miterlimit:4;stroke-dasharray:none;stroke-dashoffset:0;stroke-opacity:1"
       id="path12661-16"
       cx="166.95805"
       cy="10.176923"
       rx="4.3666825"
       ry="4.1368575" />
    <ellipse
       style="display:inline;fill:#217821;fill-opacity:1;stroke:none;stroke-width:10;stroke-linecap:round;stroke-linejoin:round;stroke-miterlimit:4;stroke-dasharray:none;stroke-dashoffset:0;stroke-opacity:1"
       id="path12659-6"
       cx="116.75131"
       cy="26.139671"
       rx="8.963191"
       ry="8.50354" />
    <ellipse
       style="display:inline;fill:#2ca02c;fill-opacity:1;stroke:none;stroke-width:10;stroke-linecap:round;stroke-linejoin:round;stroke-miterlimit:4;stroke-dasharray:none;stroke-dashoffset:0;stroke-opacity:1"
       id="path12661-7"
       cx="116.85611"
       cy="26.264702"
       rx="4.3666825"
       ry="4.1368575" />
    <ellipse
       style="display:inline;fill:#217821;fill-opacity:1;stroke:none;stroke-width:10;stroke-linecap:round;stroke-linejoin:round;stroke-miterlimit:4;stroke-dasharray:none;stroke-dashoffset:0;stroke-opacity:1"
       id="path12659-89"
       cx="62.512501"
       cy="50.960815"
       rx="8.963191"
       ry="8.50354" />
    <ellipse
       style="display:inline;fill:#2ca02c;fill-opacity:1;stroke:none;stroke-width:10;stroke-linecap:round;stroke-linejoin:round;stroke-miterlimit:4;stroke-dasharray:none;stroke-dashoffset:0;stroke-opacity:1"
       id="path12661-9"
       cx="62.617306"
       cy="51.085846"
       rx="4.3666825"
       ry="4.1368575" />
    <ellipse
       style="display:inline;fill:#217821;fill-opacity:1;stroke:none;stroke-width:10;stroke-linecap:round;stroke-linejoin:round;stroke-miterlimit:4;stroke-dasharray:none;stroke-dashoffset:0;stroke-opacity:1"
       id="path12659-67"
       cx="8.2737141"
       cy="99.683807"
       rx="8.963191"
       ry="8.50354" />
    <ellipse
       style="display:inline;fill:#2ca02c;fill-opacity:1;stroke:none;stroke-width:10;stroke-linecap:round;stroke-linejoin:round;stroke-miterlimit:4;stroke-dasharray:none;stroke-dashoffset:0;stroke-opacity:1"
       id="path12661-27"
       cx="8.3785114"
       cy="99.808838"
       rx="4.3666825"
       ry="4.1368575" />
    <ellipse
       style="display:inline;fill:#217821;fill-opacity:1;stroke:none;stroke-width:10;stroke-linecap:round;stroke-linejoin:round;stroke-miterlimit:4;stroke-dasharray:none;stroke-dashoffset:0;stroke-opacity:1"
       id="path12659-2"
       cx="39.07032"
       cy="189.31572"
       rx="8.963191"
       ry="8.50354" />
    <ellipse
       style="display:inline;fill:#2ca02c;fill-opacity:1;stroke:none;stroke-width:10;stroke-linecap:round;stroke-linejoin:round;stroke-miterlimit:4;stroke-dasharray:none;stroke-dashoffset:0;stroke-opacity:1"
       id="path12661-8"
       cx="39.175117"
       cy="189.44075"
       rx="4.3666825"
       ry="4.1368575" />
  </g>
  <g
     inkscape:label="Layer 1"
     inkscape:groupmode="layer"
     id="layer1"
     style="display:inline">
    <path
       style="fill:#4d4d4d;fill-rule:evenodd;stroke:#000000;stroke-width:0.28222221px;stroke-linecap:butt;stroke-linejoin:miter;stroke-opacity:1"
       d="m 65.270416,110.71542 -14.216508,24.79805 27.254027,-12.39226 18.386032,18.38603 0.348121,-9.09105 -13.677996,-13.89149 15.001183,-14.24439 5.056155,3.67721 2.75791,-3.67721 -4.59651,-3.21755 -2.711711,-9.620008 -8.319908,-1.411617 -6.894762,-5.515811 -2.757904,3.677206 5.51581,4.596508 -15.628128,14.249182 -15.135811,-13.835726 -7.84673,0.0462 z"
       id="path12549"
       inkscape:connector-curvature="0"
       sodipodi:nodetypes="ccccccccccccccccccc" />
    <path
       style="fill:#d35f5f;fill-rule:evenodd;stroke:none;stroke-width:0.25583896px;stroke-linecap:butt;stroke-linejoin:miter;stroke-opacity:1"
       d="m 66.145446,110.375 -13.299978,23.68757 25.606666,-12.05492 17.380205,17.61904 0.470684,-6.98923 -13.865254,-14.03461 15.957178,-15.02971 4.958303,3.84244 2.07773,-3.06678 -4.41091,-2.92404 -2.784097,-9.402272 -7.911281,-1.349382 -6.543725,-5.322874 -2.178703,2.790199 5.657504,4.62533 -16.675653,15.387829 -15.407556,-14.162976 -5.75479,-0.281802 z"
       id="path12549-2"
       inkscape:connector-curvature="0"
       sodipodi:nodetypes="ccccccccccccccccccc" />
    <path
       style="display:inline;fill:#de8787;fill-rule:evenodd;stroke:none;stroke-width:0.28222221px;stroke-linecap:butt;stroke-linejoin:miter;stroke-opacity:1"
       d="m 66.381765,114.07315 -10.22149,17.05662 17.55256,-9.64211 z"
       id="path12582"
       inkscape:connector-curvature="0"
       sodipodi:nodetypes="cccc" />
    <ellipse
       style="display:inline;fill:#de8787;fill-opacity:1;stroke:none;stroke-width:10;stroke-linecap:round;stroke-linejoin:round;stroke-miterlimit:4;stroke-dasharray:none;stroke-dashoffset:0;stroke-opacity:1"
       id="path12595"
       cx="73.811409"
       cy="114.21279"
       rx="4.5965085"
       ry="4.366683" />
    <path
       style="display:inline;fill:#de8787;fill-rule:evenodd;stroke:none;stroke-width:0.28222221px;stroke-linecap:butt;stroke-linejoin:miter;stroke-opacity:1"
       d="m 75.420185,106.05398 8.38862,8.27372 13.928937,-13.10485 -1.976615,-6.526918 -6.526925,-1.976608 z"
       id="path12597"
       inkscape:connector-curvature="0"
       sodipodi:nodetypes="cccccc" />
  </g>
  <g
     inkscape:groupmode="layer"
     id="layer2"
     inkscape:label="Layer 2"
     style="display:none" />
</svg>
